<?xml version="1.0" standalone="no"?>
<!DOCTYPE svg PUBLIC "-//W3C//DTD SVG 20010904//EN"
 "http://www.w3.org/TR/2001/REC-SVG-20010904/DTD/svg10.dtd">
<svg version="1.0" xmlns="http://www.w3.org/2000/svg"
 width="1155.000000pt" height="640.000000pt" viewBox="0 0 1155.000000 640.000000"
 preserveAspectRatio="xMidYMid meet">
<metadata>
Created by potrace 1.16, written by Peter Selinger 2001-2019
</metadata>
<g transform="translate(0.000000,640.000000) scale(0.100000,-0.100000)"
fill="#000000" stroke="none">
<path d="M966 5992 c-3 -6 0 -13 6 -16 11 -5 11 -7 0 -12 -6 -3 -9 -10 -6 -16
4 -6 0 -14 -7 -19 -9 -6 3 -9 34 -9 26 0 47 -4 47 -10 0 -5 7 -10 15 -10 8 0
15 5 15 10 0 15 30 12 47 -5 12 -12 18 -13 29 -4 11 9 14 9 14 0 0 -7 8 -11
18 -9 9 2 16 -2 15 -9 -2 -7 3 -10 11 -7 17 6 59 -45 52 -63 -3 -7 -2 -13 3
-13 16 0 -2 -242 -19 -248 -6 -2 -7 -14 -4 -26 4 -17 0 -25 -12 -30 -16 -6
-16 -8 -4 -17 13 -8 12 -11 -3 -20 -14 -8 -15 -14 -7 -24 8 -9 6 -14 -7 -19
-13 -5 -14 -9 -5 -15 10 -6 10 -10 -2 -20 -8 -7 -12 -19 -9 -27 3 -8 0 -14 -7
-14 -7 0 -9 -8 -5 -19 3 -11 1 -22 -4 -25 -6 -4 -7 -14 -4 -23 4 -10 2 -14 -4
-10 -6 4 -14 0 -17 -9 -3 -8 -2 -12 4 -9 6 3 10 0 10 -8 0 -8 -8 -18 -17 -21
-15 -6 -15 -8 -3 -17 12 -7 12 -11 2 -17 -7 -5 -10 -16 -7 -24 4 -9 0 -18 -9
-21 -9 -4 -13 -13 -10 -22 4 -8 1 -15 -6 -15 -9 0 -10 -3 -1 -14 9 -10 8 -16
-3 -25 -8 -7 -12 -19 -9 -27 3 -8 0 -14 -6 -14 -6 0 -8 -7 -4 -16 4 -11 -1
-22 -12 -30 -11 -8 -13 -14 -6 -14 7 0 9 -5 4 -12 -4 -7 -6 -21 -5 -30 2 -11
-3 -18 -12 -18 -19 0 -22 -20 -3 -20 6 0 4 -5 -7 -11 -15 -9 -16 -13 -5 -20
11 -8 10 -12 -6 -25 -17 -13 -18 -16 -5 -24 12 -8 12 -10 1 -10 -7 0 -11 -6
-8 -14 3 -8 0 -19 -7 -25 -7 -6 -13 -25 -14 -43 0 -19 -8 -38 -19 -46 -15 -11
-16 -14 -3 -22 9 -6 11 -10 3 -10 -7 0 -10 -7 -6 -15 3 -9 -2 -22 -13 -30 -17
-13 -17 -16 -4 -25 11 -7 12 -10 2 -10 -9 0 -11 -7 -7 -19 3 -12 0 -21 -11
-25 -9 -4 -14 -13 -10 -21 3 -8 0 -15 -6 -15 -7 0 -7 -4 1 -14 8 -10 8 -16 -2
-25 -8 -6 -14 -25 -15 -43 0 -19 -8 -38 -19 -46 -15 -11 -16 -14 -3 -22 12 -8
12 -10 -5 -11 -11 0 -14 -3 -7 -6 17 -7 15 -30 -3 -37 -11 -4 -14 -14 -11 -33
4 -17 -1 -34 -11 -45 -9 -10 -13 -18 -10 -18 3 0 1 -15 -4 -32 -6 -18 -13 -46
-16 -62 -2 -16 -11 -36 -20 -44 -12 -12 -12 -16 -1 -23 11 -7 11 -9 -1 -9 -8
0 -11 -6 -7 -16 4 -10 -1 -22 -11 -30 -16 -12 -16 -15 -3 -24 11 -7 12 -10 2
-10 -9 0 -11 -7 -7 -19 3 -11 0 -21 -8 -24 -8 -3 -14 -19 -15 -37 0 -17 -5
-37 -10 -43 -4 -7 -9 -25 -10 -42 -1 -16 -6 -31 -12 -33 -5 -2 -6 -10 -3 -18
3 -8 -3 -21 -13 -29 -13 -10 -15 -14 -5 -15 10 0 11 -3 2 -13 -6 -8 -8 -17 -4
-21 4 -3 -2 -13 -13 -21 -15 -11 -16 -15 -4 -15 13 -1 13 -2 0 -13 -8 -7 -16
-23 -18 -37 -1 -14 -10 -31 -19 -37 -13 -10 -14 -13 -2 -13 8 0 10 -3 4 -8 -5
-4 -10 -13 -11 -19 -2 -29 -5 -33 -20 -33 -11 0 -15 -6 -11 -20 3 -13 0 -20
-10 -20 -8 0 -11 -4 -8 -10 3 -5 1 -10 -4 -10 -6 0 -11 -7 -11 -15 0 -8 -6
-14 -12 -13 -7 2 -12 -3 -10 -9 1 -7 -5 -13 -14 -13 -8 0 -12 -4 -9 -10 3 -5
-3 -10 -14 -10 -12 0 -30 -9 -41 -20 -12 -12 -25 -18 -30 -15 -6 4 -10 1 -10
-4 0 -6 -7 -11 -15 -11 -8 0 -15 4 -15 9 0 4 -11 6 -25 3 -14 -2 -25 -8 -25
-13 0 -5 -13 -9 -30 -9 -16 0 -30 5 -30 10 0 16 -18 12 -39 -9 -11 -11 -23
-36 -27 -55 l-6 -36 685 0 c447 0 688 3 692 10 9 14 72 12 78 -2 4 -10 7 -10
14 -1 5 7 38 15 74 18 35 4 83 8 107 10 24 2 50 9 58 15 10 9 14 9 14 1 0 -16
16 -14 35 6 13 12 19 13 24 4 6 -10 12 -9 25 4 9 9 16 12 16 6 0 -16 16 -13
34 5 9 8 16 11 16 5 0 -6 7 -8 15 -5 8 4 12 11 8 17 -4 6 3 8 21 3 20 -5 26
-4 20 5 -5 9 -2 10 9 6 9 -3 19 -2 23 4 3 6 12 8 20 5 8 -3 23 3 32 12 10 10
24 16 30 14 7 -2 12 1 12 8 0 6 4 9 9 6 5 -4 12 0 14 6 4 10 8 9 16 -2 9 -13
11 -13 11 2 0 11 5 15 14 12 15 -6 80 30 114 64 15 14 30 21 42 17 11 -4 23 1
32 12 20 27 98 86 98 74 0 -6 7 -8 16 -4 8 3 13 12 10 19 -3 9 4 16 18 20 13
3 26 15 29 26 3 11 10 17 15 14 15 -9 44 5 38 19 -3 8 11 19 35 28 27 11 37
20 33 30 -5 14 26 41 48 42 4 0 27 20 50 46 24 25 51 48 61 52 10 4 16 11 12
17 -10 16 15 52 31 46 10 -4 16 3 20 23 5 21 11 28 22 24 12 -5 14 -1 9 16 -4
17 -2 21 9 17 9 -3 14 1 14 14 0 11 5 20 10 20 6 0 10 9 10 21 0 11 4 18 9 14
5 -3 13 0 17 6 5 8 3 9 -6 4 -10 -6 -12 -4 -7 9 4 10 7 20 7 22 0 2 6 4 13 4
16 0 40 47 32 61 -4 5 -1 9 4 9 6 0 10 3 10 8 -4 22 2 42 11 37 5 -3 7 0 4 8
-3 8 3 17 13 21 13 6 15 9 4 15 -10 7 -8 13 8 28 13 12 19 28 16 41 -2 12 1
22 6 22 5 0 9 6 8 13 -1 6 3 25 9 40 7 16 12 34 12 42 0 8 5 17 11 20 6 4 8
14 5 22 -4 9 -2 11 6 7 7 -5 9 1 4 20 -3 14 -2 26 3 26 15 0 23 33 10 41 -9 5
-7 12 6 25 11 12 14 19 6 22 -13 4 -15 32 -2 32 13 0 20 49 7 53 -8 3 -8 11 1
28 17 35 27 136 14 144 -14 8 -14 55 -1 55 13 0 3 75 -13 109 -9 18 -9 25 -1
28 14 5 6 43 -8 43 -6 0 -7 11 -4 24 4 15 1 26 -7 29 -9 4 -9 7 1 15 11 7 11
12 -2 25 -19 19 -21 41 -3 32 6 -4 3 1 -7 9 -11 9 -16 16 -12 16 5 0 3 7 -4
15 -6 8 -9 19 -5 25 3 5 1 10 -5 10 -7 0 -10 7 -6 15 3 8 1 15 -5 15 -6 0 -7
5 -4 10 3 6 -1 13 -9 16 -9 3 -13 10 -10 15 3 5 1 9 -4 9 -16 0 -24 33 -10 42
9 5 8 8 -6 8 -11 0 -17 3 -13 6 3 4 0 13 -8 21 -8 8 -15 23 -15 34 0 11 -7 19
-17 19 -15 0 -16 2 -3 10 13 8 13 10 -2 10 -9 0 -24 17 -35 40 -10 22 -23 40
-29 40 -6 0 -15 15 -21 33 -6 21 -15 32 -26 31 -16 -2 -22 9 -17 31 1 5 -2 7
-6 3 -11 -11 -66 32 -60 48 6 15 -31 40 -51 36 -8 -2 -10 3 -7 13 6 14 -11 21
-38 16 -5 0 -8 6 -8 14 0 9 -9 15 -21 15 -13 0 -23 8 -26 20 -4 15 -11 19 -24
15 -11 -4 -19 -2 -19 5 0 6 -4 8 -10 5 -5 -3 -10 -2 -10 4 0 6 -7 8 -15 5 -9
-4 -15 0 -15 10 0 10 -9 16 -24 16 -14 0 -28 5 -31 10 -4 6 -12 10 -18 9 -27
-3 -48 2 -43 10 3 5 -1 11 -9 15 -8 3 -15 1 -15 -4 0 -6 -5 -10 -11 -10 -5 0
-7 5 -3 11 4 8 0 9 -15 4 -14 -4 -27 -1 -37 10 -11 11 -20 13 -27 6 -6 -6 -15
-5 -24 5 -16 16 -33 19 -33 5 0 -5 -14 -2 -32 6 -23 12 -33 13 -36 5 -2 -8
-12 -7 -34 4 -20 11 -34 12 -40 6 -7 -7 -19 -7 -37 1 -35 15 -1296 23 -1305 9z
m1153 -152 c-6 -4 6 -10 27 -12 22 -3 41 -1 42 4 5 11 32 10 32 -1 0 -15 33
-22 42 -9 6 10 11 9 19 -6 9 -15 13 -16 20 -5 8 12 10 12 18 0 5 -8 16 -11 25
-8 9 4 16 2 16 -4 0 -6 7 -8 15 -5 9 3 18 -1 21 -9 3 -7 12 -11 19 -9 7 3 22
-3 33 -14 28 -28 61 -45 76 -39 13 5 87 -45 88 -60 0 -4 4 -7 10 -5 5 1 7 -2
4 -7 -4 -5 9 -17 29 -27 20 -9 35 -24 35 -34 0 -20 33 -53 43 -43 4 3 7 -3 7
-15 0 -12 6 -22 14 -22 10 0 12 -7 8 -22 -4 -15 -2 -19 8 -13 16 10 31 -14 24
-38 -3 -10 1 -19 10 -23 9 -3 12 -12 9 -21 -4 -11 -2 -14 5 -9 8 4 10 2 6 -7
-3 -8 2 -17 10 -20 9 -4 13 -13 10 -22 -3 -8 -1 -15 6 -15 6 0 8 -5 4 -11 -3
-6 0 -15 7 -20 12 -8 12 -11 -1 -18 -12 -9 -12 -11 4 -17 12 -5 16 -13 12 -30
-3 -12 -2 -24 4 -26 14 -5 23 -124 24 -323 1 -225 -9 -342 -31 -363 -10 -11
-12 -17 -4 -20 16 -5 14 -21 -5 -39 -13 -13 -13 -18 -2 -24 11 -7 11 -11 -1
-18 -8 -5 -11 -16 -8 -24 3 -9 0 -20 -7 -26 -7 -6 -12 -25 -11 -42 1 -17 -4
-33 -11 -36 -7 -2 -10 -11 -7 -19 3 -8 1 -14 -3 -14 -5 0 -10 -12 -11 -27 0
-14 -8 -30 -17 -35 -11 -6 -14 -17 -10 -32 3 -15 -1 -29 -11 -40 -9 -9 -13
-16 -8 -16 4 0 1 -6 -7 -13 -24 -19 -51 -67 -45 -77 3 -6 2 -10 -4 -10 -6 0
-7 -8 -4 -17 5 -12 2 -15 -10 -10 -12 4 -14 2 -10 -10 5 -12 3 -14 -7 -8 -10
6 -12 3 -8 -13 5 -17 -1 -27 -24 -43 -20 -15 -26 -24 -18 -29 9 -5 6 -12 -9
-22 -11 -8 -18 -18 -14 -21 3 -4 -1 -7 -9 -7 -9 0 -21 -14 -27 -30 -5 -17 -18
-33 -28 -37 -21 -7 -83 -69 -83 -82 0 -5 -9 -13 -21 -16 -11 -4 -24 -17 -29
-31 -6 -14 -15 -22 -23 -18 -8 3 -20 -2 -27 -11 -7 -8 -9 -15 -4 -15 5 0 -3
-8 -16 -17 -14 -10 -29 -17 -33 -15 -4 1 -10 -5 -13 -13 -3 -8 -10 -12 -15 -9
-5 3 -9 0 -9 -6 0 -6 -8 -9 -18 -6 -11 4 -23 -1 -31 -13 -8 -11 -20 -17 -27
-14 -6 2 -21 -6 -33 -18 -12 -13 -21 -19 -21 -13 0 5 -5 2 -10 -6 -6 -10 -10
-11 -10 -2 0 6 -4 12 -10 12 -5 0 -10 -7 -10 -15 0 -11 -7 -14 -24 -9 -17 4
-27 0 -35 -13 -8 -14 -11 -14 -11 -3 -1 12 -4 11 -15 -4 -8 -11 -21 -16 -30
-13 -8 4 -15 2 -15 -4 0 -6 -7 -8 -16 -5 -9 4 -23 1 -31 -5 -7 -7 -16 -9 -20
-5 -3 3 -15 -1 -25 -11 -11 -9 -18 -11 -18 -5 0 17 -16 15 -35 -5 -14 -13 -18
-14 -25 -3 -7 12 -12 11 -28 -3 -22 -20 -39 -22 -44 -6 -3 8 -10 6 -20 -5 -19
-18 -38 -21 -38 -6 0 6 -7 10 -16 10 -8 0 -13 -4 -10 -9 3 -4 -6 -6 -21 -3
-18 3 -24 1 -19 -7 5 -7 0 -11 -13 -11 -10 0 -22 6 -24 13 -4 9 -8 9 -16 -3
-8 -12 -45 -14 -208 -13 -257 2 -243 1 -240 16 1 7 -8 12 -22 12 -29 0 -66 55
-47 67 8 5 7 8 -1 8 -19 0 -16 27 3 34 10 4 14 14 11 26 -3 11 -1 22 3 25 4 3
6 14 3 25 -3 12 0 20 7 20 6 0 10 6 7 13 -2 6 3 18 12 25 9 8 10 11 4 7 -7 -3
-13 -1 -13 4 0 6 4 11 9 11 5 0 7 9 4 20 -3 12 0 20 7 20 7 0 9 8 5 19 -3 12
0 21 10 24 8 4 12 13 9 22 -4 8 -1 15 6 15 9 0 10 3 1 14 -9 10 -8 16 3 25 8
7 12 19 9 27 -3 8 -1 14 5 14 6 0 8 8 5 19 -3 10 0 22 6 25 5 4 8 13 4 21 -3
8 0 15 6 15 6 0 8 7 4 16 -4 10 1 20 12 26 14 8 15 12 4 19 -11 7 -10 11 6 23
17 14 18 17 5 26 -12 7 -12 10 -1 10 7 0 11 6 8 14 -3 8 1 20 8 26 8 7 13 24
11 41 -2 16 3 34 10 40 8 7 14 17 13 23 -3 29 2 57 10 52 5 -3 11 1 14 8 3 8
1 17 -6 20 -9 3 -9 7 1 14 7 5 10 16 7 24 -4 9 1 18 12 22 15 6 15 9 3 16 -12
8 -12 10 3 16 13 4 15 10 7 19 -7 9 -6 16 4 24 8 7 12 19 9 27 -3 8 0 14 6 14
6 0 8 7 5 15 -4 8 -1 21 5 29 6 7 8 16 4 20 -4 3 2 13 13 22 10 8 13 13 7 9
-19 -9 -15 16 5 32 9 8 11 12 5 8 -8 -3 -13 0 -13 8 0 8 7 18 16 21 9 4 14 13
10 21 -3 8 0 15 6 15 7 0 7 4 -1 14 -9 10 -8 16 4 26 9 7 14 19 11 27 -3 7 0
13 6 13 7 0 7 4 -1 14 -8 10 -8 16 2 25 8 6 14 25 15 43 0 18 8 38 18 45 10 7
12 13 6 13 -7 0 -12 5 -12 11 0 5 5 7 11 3 8 -4 9 1 4 15 -5 16 -1 27 12 36
14 11 15 14 3 15 -12 1 -11 3 3 14 12 10 15 16 7 21 -8 5 -6 13 6 26 13 15 14
19 3 19 -10 1 -10 4 3 14 10 7 15 16 12 19 -4 3 -3 14 1 24 5 10 7 22 6 27 -1
4 6 14 16 22 16 12 16 15 3 24 -10 6 -11 10 -3 10 7 0 10 7 6 15 -3 9 2 22 13
30 17 13 17 16 4 25 -13 8 -12 10 4 10 14 0 16 3 7 14 -9 10 -8 16 4 26 9 7
14 19 11 27 -3 7 0 13 6 13 7 0 7 4 -1 14 -9 10 -8 16 3 25 8 7 12 19 9 27 -3
8 0 14 6 14 6 0 8 7 4 16 -4 11 1 22 12 30 10 8 13 14 7 14 -7 0 -12 5 -12 11
0 5 5 7 11 3 8 -4 9 1 4 15 -5 16 -1 27 12 36 14 11 15 14 3 15 -12 1 -11 3 3
14 13 10 15 15 5 19 -10 3 -8 9 6 26 14 16 16 21 5 21 -11 1 -11 3 1 13 9 7
14 20 12 30 -2 9 1 17 7 17 6 0 8 7 5 15 -3 8 2 22 11 31 11 11 14 25 10 42
-4 17 -1 28 12 38 16 12 16 15 3 24 -10 6 -11 10 -3 10 7 0 10 6 7 14 -4 11 5
13 43 10 35 -3 41 -1 23 5 -15 4 58 8 173 8 109 0 193 -3 186 -7z"/>
<path d="M5486 5631 c-62 -25 -131 -93 -153 -151 -25 -63 -22 -172 5 -230 32
-72 119 -141 284 -229 111 -59 203 -129 227 -171 40 -71 24 -159 -37 -197 -15
-10 -30 -21 -33 -26 -13 -18 -98 -27 -152 -16 -28 6 -58 11 -64 12 -7 0 -11 2
-8 5 4 5 -44 35 -76 47 -22 9 -68 83 -75 122 -3 18 -10 33 -14 33 -5 0 -11 18
-15 40 -6 34 -11 40 -31 40 l-24 0 0 -190 0 -190 24 0 c17 0 26 7 30 24 8 34
22 36 101 15 39 -10 80 -18 93 -18 13 -1 20 -5 17 -11 -11 -18 174 -11 230 8
57 19 135 62 135 73 0 5 11 20 26 34 41 41 57 92 57 180 0 55 -5 92 -17 115
-17 35 -97 130 -110 130 -4 0 -22 11 -39 24 -18 13 -45 26 -60 30 -15 4 -25
10 -22 15 2 5 -14 17 -38 26 -23 9 -67 34 -97 54 -30 21 -74 48 -97 61 -23 13
-41 26 -40 29 1 3 -9 19 -23 34 -31 36 -42 72 -29 104 17 47 60 92 97 103 20
6 47 16 60 22 17 9 25 9 34 0 7 -7 22 -12 34 -12 12 0 49 -15 83 -32 63 -35
104 -82 116 -137 4 -17 10 -31 15 -31 4 0 11 -22 15 -48 5 -37 10 -48 23 -47
9 0 18 4 20 8 1 4 2 88 2 187 0 156 -2 180 -15 180 -9 0 -26 -11 -38 -25 l-22
-26 -60 21 c-89 32 -272 38 -339 11z"/>
<path d="M9611 5639 c-18 -6 -45 -18 -60 -27 -34 -21 -89 -82 -97 -107 -4 -10
-12 -25 -20 -32 -19 -20 -28 -113 -14 -163 12 -44 75 -150 89 -150 4 0 22 -13
40 -29 18 -16 47 -35 64 -42 18 -7 36 -19 40 -26 4 -7 38 -28 75 -46 200 -99
286 -198 248 -288 -22 -54 -85 -105 -142 -117 -52 -11 -162 -1 -173 16 -3 5
-20 16 -37 25 -18 9 -50 38 -73 64 -31 37 -44 64 -58 120 -16 69 -18 73 -45
73 l-28 0 2 -187 3 -188 28 -3 c21 -3 27 1 27 17 0 35 27 40 104 20 39 -10 81
-19 94 -19 13 0 20 -4 17 -10 -8 -12 197 -14 211 -2 5 5 31 17 58 27 66 24
138 99 160 165 9 28 14 56 10 62 -4 7 -3 8 4 4 8 -5 12 5 12 33 0 23 -4 41
-10 41 -5 0 -7 6 -4 14 7 19 -55 146 -75 154 -9 3 -29 19 -45 35 -16 15 -51
38 -77 49 -27 12 -46 24 -44 27 3 2 -24 19 -61 37 -36 18 -72 38 -80 45 -22
18 -126 79 -135 79 -5 0 -9 6 -9 14 0 8 -5 16 -10 18 -6 2 -17 22 -25 44 -15
44 -6 105 18 129 39 37 163 86 175 69 4 -5 33 -18 65 -28 102 -34 163 -115
183 -242 6 -38 8 -40 35 -36 l29 4 0 184 0 184 -27 0 c-17 0 -35 -10 -48 -24
l-20 -24 -60 20 c-69 24 -257 34 -314 17z"/>
<path d="M6110 5613 c0 -14 9 -18 46 -19 37 -1 51 -7 77 -33 l32 -31 5 -373
c6 -357 7 -374 28 -419 12 -26 35 -61 52 -80 16 -18 30 -36 30 -40 0 -12 94
-57 132 -63 18 -3 37 -10 42 -16 13 -12 266 -12 266 1 0 6 8 10 18 10 48 0
119 38 175 94 32 32 56 61 53 64 -3 3 -1 11 5 18 28 34 42 173 48 484 6 313 6
315 30 347 18 25 35 34 68 39 27 4 43 11 43 20 0 11 -35 14 -189 14 -163 0
-190 -2 -195 -16 -3 -9 -6 -16 -6 -17 0 -1 23 -3 51 -4 55 -2 77 -20 90 -73
11 -43 10 -585 -2 -667 -15 -108 -38 -145 -121 -193 -86 -49 -159 -64 -245
-49 -35 6 -63 15 -63 20 0 4 -18 19 -40 31 -85 49 -103 157 -98 580 3 272 4
288 24 315 16 21 34 30 72 37 32 6 52 15 52 23 0 10 -48 13 -240 13 -222 0
-240 -1 -240 -17z"/>
<path d="M7300 5613 c0 -15 8 -18 44 -18 35 0 48 -6 69 -30 l26 -30 1 -429 c0
-455 -3 -491 -45 -502 -32 -8 -58 -12 -77 -13 -10 -1 -18 -9 -18 -18 0 -17 18
-18 235 -18 217 0 235 1 235 18 0 9 -8 17 -17 18 -63 2 -122 26 -116 46 2 6
-1 14 -6 18 -7 4 -11 74 -11 196 l0 189 23 0 c12 0 32 3 43 6 17 5 29 -4 57
-43 20 -26 48 -64 62 -83 106 -143 155 -212 155 -221 0 -5 4 -9 8 -9 4 0 21
-21 38 -47 61 -97 -7 -88 634 -88 l565 0 28 85 c15 47 34 99 41 115 8 17 16
42 20 58 6 25 4 27 -24 27 -26 0 -33 -7 -55 -49 -52 -103 -120 -151 -214 -151
-27 0 -53 -5 -56 -11 -4 -6 -42 -9 -100 -8 -52 2 -92 6 -89 11 3 4 -5 8 -18 8
-46 0 -48 11 -48 237 l0 213 109 0 c191 0 242 -20 256 -100 10 -55 12 -58 39
-53 l26 5 0 179 0 179 -25 0 c-19 0 -26 -7 -31 -27 -12 -57 -28 -85 -53 -95
-14 -6 -92 -13 -173 -16 l-148 -5 0 203 0 202 183 -4 c238 -6 250 -12 281
-130 9 -35 19 -54 31 -56 32 -7 37 12 29 137 l-7 121 -421 -2 c-346 -3 -421
-5 -421 -17 0 -8 15 -14 43 -16 50 -4 89 -27 102 -58 12 -32 13 -830 0 -876
-10 -40 -33 -56 -93 -67 -52 -9 -133 13 -184 50 -54 39 -66 52 -123 134 -23
31 -56 77 -75 102 -18 25 -46 63 -62 85 -15 22 -38 53 -50 68 -19 24 -34 72
-17 55 3 -3 32 5 65 17 72 29 139 94 157 152 29 96 7 223 -48 273 -103 94
-100 94 -467 98 -297 3 -313 2 -313 -15z m533 -78 c72 -30 109 -90 111 -180 1
-47 -4 -71 -24 -108 -14 -26 -31 -47 -37 -47 -7 0 -13 -3 -13 -8 0 -25 -144
-69 -237 -72 -10 0 -13 48 -13 209 l0 208 43 10 c51 11 128 6 170 -12z"/>
<path d="M10240 5613 c0 -14 10 -18 45 -20 35 -2 50 -8 70 -30 l24 -28 1 -402
c0 -311 3 -402 13 -406 10 -4 10 -6 0 -6 -8 -1 -13 -15 -13 -35 0 -52 -32 -84
-91 -92 -31 -4 -49 -11 -49 -20 0 -11 47 -14 235 -16 215 -3 235 -2 235 14 0
12 -12 19 -47 24 -34 5 -56 15 -75 37 l-28 29 0 204 0 204 238 0 237 0 -5
-217 c-3 -120 -9 -223 -13 -230 -4 -7 -24 -16 -45 -20 -20 -4 -40 -8 -44 -9
-5 -1 -17 -2 -28 -3 -11 0 -20 -8 -20 -16 0 -13 32 -15 224 -15 123 0 231 -3
240 -6 12 -4 16 0 16 15 0 14 -6 21 -18 21 -34 0 -119 30 -122 42 -2 7 -5 210
-7 451 -3 334 0 443 9 460 7 12 11 26 10 30 -1 5 2 6 8 2 5 -3 10 -2 10 2 0 9
31 15 83 17 19 1 27 6 27 19 0 16 -18 17 -240 17 -198 0 -240 -2 -240 -14 0
-9 17 -16 48 -21 30 -4 57 -16 75 -33 l27 -26 0 -203 0 -203 -235 0 -235 0 0
198 1 197 30 33 c24 27 38 33 74 35 35 2 45 6 45 20 0 16 -18 17 -235 17 -217
0 -235 -1 -235 -17z"/>
<path d="M9620 4387 c-14 -6 -27 -14 -30 -18 -3 -3 -34 -17 -70 -29 -79 -28
-73 -24 -65 -50 6 -19 12 -21 40 -17 63 10 70 -4 74 -158 1 -76 -1 -135 -5
-133 -5 3 -24 11 -41 18 -18 8 -33 18 -33 22 0 11 -144 10 -155 -1 -6 -5 -28
-14 -49 -21 -113 -36 -225 -235 -226 -400 0 -47 25 -160 38 -170 4 -3 16 -23
27 -44 20 -40 81 -106 97 -106 5 0 28 -9 50 -20 44 -21 158 -28 158 -10 0 6
10 10 23 10 13 0 44 13 70 30 l47 30 0 -40 c0 -39 1 -40 34 -40 19 0 37 4 41
9 3 5 22 15 43 21 20 7 51 18 67 25 17 7 43 17 58 24 45 18 32 46 -20 46 -49
0 -60 9 -67 50 -2 17 -5 245 -5 508 l-1 477 -37 -1 c-21 0 -49 -6 -63 -12z
m-132 -465 c17 -13 32 -29 32 -34 0 -5 4 -7 9 -4 5 3 12 -4 16 -17 4 -12 10
-29 13 -37 8 -21 14 -359 8 -395 -5 -23 -17 -36 -52 -54 -54 -29 -90 -31 -144
-6 -49 22 -109 101 -127 165 -17 63 -16 172 3 247 13 51 24 71 65 112 67 67
111 73 177 23z"/>
<path d="M10737 4386 c-15 -7 -24 -15 -21 -19 4 -4 1 -7 -6 -7 -7 0 -40 -10
-72 -22 -49 -17 -58 -25 -56 -42 3 -24 46 -35 59 -15 6 10 13 8 28 -10 21 -23
21 -34 21 -461 0 -468 -3 -499 -46 -501 -46 -3 -49 -4 -52 -24 -3 -19 3 -20
183 -20 184 0 185 0 185 22 0 19 -6 22 -42 25 -34 2 -45 8 -55 28 -10 19 -13
147 -13 543 l0 517 -42 -1 c-24 0 -55 -6 -71 -13z"/>
<path d="M6010 4323 c0 -13 9 -19 33 -20 45 -3 80 -13 73 -20 -3 -4 2 -15 11
-26 16 -17 18 -55 21 -436 2 -280 0 -428 -8 -453 -14 -48 -34 -59 -117 -67 -7
0 -13 -8 -13 -16 0 -13 28 -15 195 -15 159 0 195 3 195 14 0 9 -18 16 -54 20
-60 8 -86 33 -86 81 0 14 -4 25 -10 25 -6 0 -10 124 -10 351 0 292 2 350 13
340 8 -6 19 -29 26 -51 7 -23 23 -62 37 -88 14 -26 35 -69 46 -97 17 -44 93
-208 119 -257 5 -10 9 -23 9 -30 0 -6 6 -19 14 -27 8 -9 29 -53 46 -98 18 -46
36 -83 40 -83 5 0 16 -22 26 -50 16 -44 21 -50 46 -50 31 0 44 23 83 137 9 26
20 50 24 53 4 3 20 34 35 70 27 62 35 79 56 118 5 9 16 35 26 57 9 22 34 77
56 123 22 45 41 88 42 95 1 6 21 50 44 97 l42 85 0 -365 c0 -305 -2 -369 -15
-386 -8 -12 -12 -24 -9 -27 3 -3 -11 -9 -32 -13 -22 -5 -42 -9 -46 -10 -5 -1
-17 -2 -28 -3 -11 0 -20 -8 -20 -16 0 -13 33 -15 240 -15 207 0 240 2 240 15
0 8 -8 15 -17 16 -76 3 -119 24 -130 67 -5 15 -8 218 -8 452 l0 425 28 30 c23
25 35 30 77 30 41 0 50 3 50 18 0 15 -15 17 -166 17 l-165 0 -13 -32 c-19 -49
-25 -62 -35 -78 -21 -38 -39 -78 -51 -115 -7 -22 -18 -47 -25 -55 -7 -8 -25
-44 -39 -80 -15 -36 -44 -101 -65 -145 -21 -44 -60 -128 -87 -187 -27 -60 -51
-102 -53 -95 -2 6 -9 19 -16 27 -6 8 -22 40 -34 70 -42 102 -45 109 -53 104
-4 -3 -8 2 -8 10 0 17 -69 179 -80 186 -4 3 -13 22 -20 44 -12 37 -60 145 -79
176 -5 8 -21 44 -36 80 -15 36 -32 71 -38 78 -7 9 -53 12 -168 12 -145 0 -159
-2 -159 -17z"/>
<path d="M7730 4020 c-8 -5 -37 -17 -63 -27 -71 -26 -124 -81 -162 -167 -41
-93 -60 -198 -45 -251 45 -157 52 -172 103 -227 55 -59 68 -68 138 -92 49 -17
170 -21 197 -7 9 6 38 17 64 27 61 21 138 101 163 169 10 28 22 55 26 60 4 6
12 37 18 71 14 77 -1 194 -29 234 -11 16 -20 35 -20 43 0 29 -99 124 -148 142
-26 9 -55 20 -64 26 -22 11 -158 11 -178 -1z m157 -106 c35 -26 100 -143 107
-194 23 -143 11 -272 -30 -326 -67 -88 -130 -100 -210 -40 -57 42 -85 96 -107
205 -7 34 -15 60 -18 57 -9 -10 -10 113 0 131 10 18 26 92 23 106 -4 16 89 96
116 99 39 5 79 -8 119 -38z"/>
<path d="M8410 4020 c-22 -14 -99 -45 -148 -60 -48 -15 -55 -21 -46 -44 4 -11
19 -16 48 -16 74 0 71 12 71 -284 0 -298 0 -298 -76 -310 -29 -5 -39 -11 -37
-22 3 -12 33 -15 196 -17 177 -2 192 -1 192 16 0 10 -8 18 -20 18 -45 3 -73
16 -90 41 -11 18 -15 71 -18 245 l-4 221 39 37 c75 72 166 89 212 39 34 -37
36 -56 36 -317 0 -218 0 -219 -24 -238 -13 -10 -33 -19 -45 -19 -27 0 -61 -23
-53 -36 3 -5 90 -8 196 -6 157 2 191 5 191 17 0 8 -15 17 -37 21 -48 8 -71 29
-78 68 -2 17 -6 139 -8 271 -3 219 -5 244 -24 286 -58 127 -239 130 -358 6
l-40 -42 -3 68 c-3 66 -3 67 -30 66 -15 0 -34 -4 -42 -9z"/>
<path d="M10076 4021 c-3 -5 -21 -12 -39 -15 -18 -3 -43 -15 -55 -26 -12 -11
-25 -20 -31 -20 -17 0 -51 -85 -51 -126 1 -56 27 -84 80 -84 25 0 39 4 35 10
-3 6 -2 10 4 10 17 0 41 56 41 93 0 65 55 106 118 88 60 -18 92 -74 92 -162
l0 -36 -87 -29 c-47 -16 -92 -34 -98 -41 -7 -6 -29 -19 -49 -27 -62 -26 -117
-76 -142 -130 -26 -56 -30 -100 -13 -157 12 -38 67 -114 76 -105 3 3 15 -1 27
-9 11 -8 41 -15 65 -15 47 0 131 26 131 41 0 5 6 9 14 9 7 0 25 11 40 25 31
29 36 30 36 10 0 -48 46 -85 105 -85 36 0 148 67 158 95 11 26 8 65 -4 65 -6
0 -22 -9 -36 -20 -33 -26 -52 -25 -62 3 -5 12 -10 131 -10 265 -1 133 -6 252
-11 265 -31 77 -116 117 -247 117 -45 0 -84 -4 -87 -9z m189 -588 c-3 -15 -26
-32 -70 -54 l-64 -31 -45 21 c-34 17 -48 31 -56 57 -28 85 25 156 158 211 l77
32 3 -107 c2 -59 0 -117 -3 -129z"/>
<path d="M0 1360 l0 -1360 5775 0 5775 0 0 1360 0 1360 -5775 0 -5775 0 0
-1360z m730 940 l0 -180 275 0 275 0 0 181 0 180 28 -3 27 -3 3 -402 2 -403
-30 0 -30 0 0 200 0 200 -275 0 -275 0 0 -200 0 -200 -30 0 -30 0 0 398 c0
219 3 402 7 405 3 4 17 7 30 7 l23 0 0 -180z m1620 79 c70 -33 141 -103 177
-177 26 -52 28 -67 28 -167 0 -100 -2 -115 -28 -167 -36 -74 -107 -144 -177
-177 -48 -23 -68 -26 -155 -26 -87 0 -107 3 -155 26 -69 33 -143 107 -177 178
-35 70 -44 200 -19 283 29 99 114 192 214 234 80 34 211 31 292 -7z m3190 0
c70 -33 141 -103 177 -177 26 -52 28 -67 28 -167 0 -100 -2 -115 -28 -167 -36
-74 -107 -144 -177 -177 -48 -23 -68 -26 -155 -26 -87 0 -107 3 -155 26 -69
33 -143 107 -177 178 -35 70 -44 200 -19 283 29 99 114 192 214 234 80 34 211
31 292 -7z m5515 14 c67 -14 76 -19 73 -37 -3 -24 -16 -25 -128 -6 -155 26
-254 0 -330 -87 -58 -66 -75 -116 -75 -223 0 -111 18 -159 87 -229 91 -92 201
-118 358 -87 68 14 85 15 91 4 14 -22 11 -26 -38 -45 -37 -14 -76 -18 -168
-18 -113 0 -124 2 -180 29 -73 36 -144 105 -182 177 -26 50 -28 63 -28 164 0
104 2 114 32 175 67 135 171 199 325 200 48 0 122 -7 163 -17z m-7814 -281
c66 -156 119 -288 119 -293 0 -33 30 25 150 284 106 227 140 293 155 295 19 3
24 -19 73 -350 29 -194 53 -361 52 -371 0 -14 -7 -18 -27 -15 l-28 3 -41 291
c-23 161 -43 296 -45 302 -2 6 -63 -116 -134 -271 -104 -226 -134 -282 -149
-282 -16 0 -40 50 -132 275 -62 151 -115 279 -117 284 -2 5 -22 -119 -46 -275
-23 -156 -45 -294 -48 -306 -7 -30 -53 -33 -53 -4 0 10 25 172 55 359 30 187
55 346 55 352 0 6 10 10 21 8 18 -2 42 -52 140 -286z m1347 266 c-3 -22 -6
-23 -145 -26 l-143 -3 0 -129 0 -130 130 0 130 0 0 -25 0 -25 -130 0 -130 0 0
-160 0 -160 150 0 150 0 0 -25 0 -25 -180 0 -180 0 0 365 0 365 176 0 175 0
-3 -22z m1915 10 c115 -34 168 -170 111 -280 -37 -71 -134 -128 -231 -136 -59
-4 -63 -3 -63 17 0 17 6 21 35 21 56 0 140 37 178 79 40 45 52 94 37 152 -22
80 -77 109 -207 109 l-73 0 0 -345 0 -345 -30 0 -30 0 0 363 c0 200 3 367 7
370 11 12 224 8 266 -5z m949 -348 c81 -195 148 -361 148 -367 0 -7 -12 -13
-27 -13 -26 0 -31 8 -80 128 l-51 127 -160 3 -160 2 -52 -130 c-51 -126 -53
-130 -82 -130 -16 0 -28 4 -26 9 2 5 70 172 153 370 128 310 153 361 169 359
15 -2 51 -79 168 -358z m988 335 l0 -25 -120 0 -120 0 0 -340 0 -340 -30 0
-30 0 0 340 0 339 -122 3 c-119 3 -123 4 -126 26 l-3 22 275 0 276 0 0 -25z
m470 -130 l0 -155 250 0 250 0 0 155 0 155 25 0 25 0 0 -365 0 -365 -25 0 -25
0 0 185 0 185 -250 0 -250 0 0 -185 0 -185 -30 0 -30 0 0 365 0 365 30 0 30 0
0 -155z m1140 -210 l0 -365 -30 0 -30 0 0 365 0 365 30 0 30 0 0 -365z m-8298
-711 c57 -16 66 -26 49 -53 -7 -12 -17 -12 -53 -3 -121 31 -192 26 -242 -18
-27 -25 -31 -35 -31 -77 0 -72 35 -118 155 -203 179 -128 223 -204 188 -323
-16 -53 -65 -101 -124 -121 -91 -31 -259 -14 -313 32 -18 15 -19 19 -6 36 14
18 16 18 67 -5 65 -28 182 -32 240 -6 49 21 78 69 78 129 0 65 -39 113 -169
207 -135 98 -174 150 -179 237 -4 52 0 69 18 100 48 77 186 106 322 68z m2841
-12 c65 -29 158 -120 190 -186 61 -125 63 -269 5 -393 -32 -67 -120 -158 -186
-190 -52 -25 -67 -28 -167 -28 -101 0 -115 2 -169 29 -153 75 -233 223 -224
411 9 175 107 312 263 368 70 25 220 19 288 -11z m2100 0 c65 -29 158 -120
190 -186 61 -125 63 -269 5 -393 -32 -67 -120 -158 -186 -190 -52 -25 -67 -28
-167 -28 -101 0 -115 2 -169 29 -153 75 -233 223 -224 411 9 175 107 312 263
368 70 25 220 19 288 -11z m1254 14 c91 -20 103 -25 103 -46 0 -29 -13 -31
-87 -14 -37 9 -111 17 -163 18 -79 0 -103 -3 -145 -22 -144 -66 -227 -234
-196 -399 23 -125 95 -218 209 -271 49 -23 70 -26 152 -26 52 0 119 6 148 13
l52 13 0 169 0 169 30 0 30 0 0 -184 0 -185 -57 -22 c-50 -20 -77 -23 -193
-24 -131 0 -137 1 -201 31 -85 41 -162 118 -203 203 -29 62 -31 73 -31 181 0
105 2 120 28 174 52 112 125 181 230 217 65 23 199 25 294 5z m1585 -2 c57
-16 66 -26 49 -53 -7 -12 -17 -12 -53 -3 -121 31 -192 26 -242 -18 -27 -25
-31 -35 -31 -77 0 -72 35 -118 155 -203 179 -128 223 -204 188 -323 -16 -53
-65 -101 -124 -121 -91 -31 -259 -14 -313 32 -18 15 -19 19 -6 36 14 18 16 18
67 -5 65 -28 182 -32 240 -6 49 21 78 69 78 129 0 65 -39 113 -169 207 -135
98 -174 150 -179 237 -4 52 0 69 18 100 48 77 186 106 322 68z m-6272 -169
c58 -96 107 -174 110 -174 3 0 54 78 115 174 99 158 112 175 137 175 16 0 28
-4 28 -9 0 -4 -56 -95 -125 -200 l-126 -193 126 -198 c69 -109 125 -201 125
-204 0 -3 -15 -6 -32 -6 -32 0 -37 6 -143 180 -60 99 -112 180 -116 180 -3 0
-57 -81 -120 -180 -110 -173 -115 -179 -147 -180 l-34 0 23 38 c13 20 72 111
133 202 60 90 109 169 109 175 0 5 -51 90 -112 188 -62 98 -115 185 -118 193
-4 10 4 14 28 14 33 0 36 -4 139 -175z m2130 -205 l0 -380 185 0 185 0 0 -25
0 -25 -215 0 -215 0 0 398 c0 219 3 402 7 405 3 4 17 7 30 7 l23 0 0 -380z
m3280 -25 l0 -405 -30 0 -30 0 0 398 c0 219 3 402 7 405 3 4 17 7 30 7 l23 0
0 -405z m1900 380 l0 -25 -135 0 -135 0 0 -380 0 -380 -30 0 -30 0 0 380 0
380 -135 0 -135 0 0 25 0 25 300 0 300 0 0 -25z m-7880 -10 l0 -25 -160 0
-160 0 0 -145 0 -145 145 0 145 0 0 -25 0 -25 -145 0 -145 0 0 -180 0 -180
165 0 165 0 0 -25 0 -25 -195 0 -195 0 0 400 0 400 190 0 190 0 0 -25z"/>
<path d="M2099 2347 c-135 -51 -209 -161 -209 -312 0 -135 66 -247 178 -298
73 -34 189 -31 264 6 108 53 168 158 168 292 0 186 -115 314 -290 322 -47 2
-89 -2 -111 -10z"/>
<path d="M5289 2347 c-135 -51 -209 -161 -209 -312 0 -135 66 -247 178 -298
73 -34 189 -31 264 6 108 53 168 158 168 292 0 186 -115 314 -290 322 -47 2
-89 -2 -111 -10z"/>
<path d="M7211 2134 c-35 -85 -61 -157 -59 -160 3 -2 64 -3 135 -2 l130 3 -66
158 c-35 86 -67 157 -70 157 -3 0 -35 -70 -70 -156z"/>
<path d="M4357 1280 c-175 -44 -281 -223 -248 -420 14 -87 39 -138 97 -200 63
-67 128 -94 229 -94 68 -1 89 3 136 27 65 32 132 100 160 161 45 103 42 251
-7 352 -29 60 -98 128 -158 154 -50 23 -157 33 -209 20z"/>
<path d="M6457 1280 c-175 -44 -281 -223 -248 -420 14 -87 39 -138 97 -200 63
-67 128 -94 229 -94 68 -1 89 3 136 27 65 32 132 100 160 161 45 103 42 251
-7 352 -29 60 -98 128 -158 154 -50 23 -157 33 -209 20z"/>
</g>
</svg>
